<svg width="128" height="46" viewBox="0 0 128 46" fill="none" xmlns="http://www.w3.org/2000/svg">
<g opacity="0.5" clip-path="url(#clip0)">
<path d="M46.2375 19.2648C46.1733 18.4142 45.7912 17.6195 45.1681 17.0405C44.545 16.4615 43.727 16.1411 42.8785 16.1435H40.9954V15.3504C40.9954 13.6875 40.9954 11.9989 40.9954 10.2336C40.9463 9.36533 40.7924 8.50624 40.5373 7.67522C40.3383 7.01091 40.0741 6.36815 39.7485 5.75643C38.9057 4.10452 37.6468 2.70366 36.0974 1.6936C34.548 0.683546 32.7622 0.0996034 30.9183 2.93087e-05C28.853 -0.111102 26.799 0.371231 24.9965 1.39062C23.1939 2.41001 21.7173 3.92431 20.7393 5.75643C20.4133 6.36483 20.1571 7.00858 19.9759 7.67522C19.8241 8.20302 19.7135 8.74192 19.6451 9.28701C19.4534 11.3022 19.3685 13.3262 19.3906 15.3504C19.3906 15.6318 19.3906 15.9389 19.3906 16.2714H17.991C17.471 16.2127 16.9445 16.2708 16.4495 16.4414C15.9544 16.612 15.5032 16.8909 15.1284 17.258C14.7535 17.625 14.4643 18.0712 14.2817 18.5642C14.099 19.0572 14.0275 19.5849 14.0721 20.109C14.0721 25.2258 14.0721 30.0868 14.0721 35.0501C14.0006 35.6036 14.0568 36.1662 14.2366 36.6943C14.4163 37.2224 14.7146 37.7018 15.1084 38.0952C15.5022 38.4887 15.9809 38.7856 16.5073 38.9629C17.0337 39.1403 17.5936 39.1933 18.1437 39.1179H42.2678C42.8192 39.1889 43.3795 39.1319 43.9057 38.9513C44.4318 38.7707 44.9098 38.4712 45.303 38.076C45.6961 37.6808 45.9939 37.2002 46.1736 36.6712C46.3532 36.1423 46.4099 35.5789 46.3393 35.0245V23.9722C46.3393 22.4116 46.3648 20.8254 46.2375 19.2648ZM21.6554 15.9644C21.5576 13.66 21.6256 11.3514 21.859 9.05676C21.9393 8.58952 22.0498 8.12803 22.1898 7.67522C22.4559 6.99405 22.8065 6.34935 23.2332 5.75643C24.0388 4.63316 25.1033 3.7229 26.3353 3.10357C27.5673 2.48424 28.9303 2.17429 30.3075 2.20025C31.6431 2.22684 32.9548 2.56129 34.1416 3.17783C35.3284 3.79437 36.3586 4.67655 37.1528 5.75643C37.5713 6.35027 37.9134 6.995 38.1707 7.67522C38.3804 8.27182 38.5254 8.88941 38.6033 9.51727C38.731 11.7156 38.731 13.9196 38.6033 16.1179H21.7572C21.7572 16.1179 21.6554 16.0156 21.6554 15.9644ZM39.4686 23.6396L30.2312 32.901C30.1169 33.0234 29.979 33.1209 29.8258 33.1876C29.6726 33.2543 29.5074 33.2887 29.3405 33.2887C29.1736 33.2887 29.0084 33.2543 28.8553 33.1876C28.7021 33.1209 28.5641 33.0234 28.4499 32.901L24.0475 28.475C23.8079 28.2341 23.6733 27.9074 23.6733 27.5668C23.6733 27.2261 23.8079 26.8994 24.0475 26.6585C24.2871 26.4177 24.612 26.2823 24.9509 26.2823C25.2897 26.2823 25.6146 26.4177 25.8542 26.6585L29.366 30.1891L37.6872 21.8232C37.9268 21.5823 38.2518 21.447 38.5906 21.447C38.9295 21.447 39.2544 21.5823 39.494 21.8232C39.7336 22.064 39.8682 22.3907 39.8682 22.7314C39.8682 23.0721 39.7336 23.3988 39.494 23.6396H39.4686Z" fill="white"/>
<path d="M107.973 5.75635H37.1531C37.5716 6.35019 37.9136 6.99492 38.171 7.67515H107.973C110.408 7.58336 112.836 7.98624 115.112 8.85968C117.389 9.73312 119.466 11.0592 121.221 12.7585C122.976 14.4579 124.372 16.4956 125.325 18.7499C126.279 21.0041 126.77 23.4286 126.77 25.8782C126.77 28.3277 126.279 30.7522 125.325 33.0064C124.372 35.2607 122.976 37.2984 121.221 38.9978C119.466 40.6971 117.389 42.0232 115.112 42.8966C112.836 43.7701 110.408 44.1729 107.973 44.0812H20.0271C15.3411 43.9255 10.8976 41.9497 7.6304 38.5689C4.36321 35.1882 2.52675 30.6658 2.50698 25.9521C2.48722 21.2384 4.28568 16.7006 7.52439 13.2923C10.7631 9.88393 15.1899 7.87051 19.8744 7.67515H22.1901C22.4562 6.99397 22.8067 6.34928 23.2334 5.75635H20.0271C14.7122 5.75635 9.615 7.87901 5.85682 11.6574C2.09863 15.4358 -0.0126953 20.5603 -0.0126953 25.9037C-0.0126953 31.2472 2.09863 36.3717 5.85682 40.1501C9.615 43.9285 14.7122 46.0511 20.0271 46.0511H107.973C110.661 46.1475 113.341 45.6984 115.853 44.7306C118.365 43.7628 120.658 42.2961 122.593 40.4181C124.529 38.5401 126.069 36.2893 127.12 33.8C128.172 31.3106 128.714 28.6338 128.714 25.9293C128.714 23.2248 128.172 20.548 127.12 18.0587C126.069 15.5693 124.529 13.3185 122.593 11.4405C120.658 9.56252 118.365 8.09585 115.853 7.12805C113.341 6.16024 110.661 5.71113 107.973 5.80752V5.75635Z" fill="white"/>
<path d="M54.9668 19.7511C54.9714 20.2016 55.0943 20.6429 55.323 21.0303C55.5635 21.3489 55.8824 21.599 56.2483 21.756C56.6142 21.9131 57.0145 21.9715 57.4097 21.9257C57.79 21.9252 58.1678 21.8648 58.5294 21.7466C58.8388 21.696 59.1224 21.5424 59.3346 21.3105C59.5469 21.0785 59.6755 20.7817 59.7 20.4674C59.7188 20.2679 59.6866 20.0667 59.6065 19.8832C59.5263 19.6996 59.4008 19.5396 59.2419 19.4185C58.7964 19.1628 58.3164 18.9732 57.8169 18.8557L56.6209 18.5998C56.0381 18.4543 55.4805 18.2215 54.9668 17.909C54.6854 17.7251 54.4572 17.4697 54.3053 17.1688C54.1534 16.8678 54.0831 16.5319 54.1016 16.1949C54.0801 15.8123 54.1445 15.4298 54.2898 15.0755C54.4352 14.7212 54.6578 14.4043 54.9413 14.1482C55.5919 13.5921 56.4299 13.3083 57.2825 13.3551C58.1288 13.3214 58.9619 13.5736 59.6491 14.0714C59.9857 14.3301 60.2528 14.6691 60.4261 15.0578C60.5994 15.4465 60.6735 15.8725 60.6415 16.2973H59.471C59.4497 15.8858 59.3177 15.488 59.0892 15.146C58.8606 14.8912 58.5758 14.6937 58.2576 14.5693C57.9395 14.4449 57.5968 14.3971 57.257 14.4296C56.9889 14.4027 56.7181 14.4295 56.4604 14.5085C56.2027 14.5876 55.9631 14.7173 55.7556 14.8901C55.6109 15.0287 55.4957 15.1954 55.4169 15.3801C55.3382 15.5648 55.2976 15.7637 55.2976 15.9647C55.2823 16.165 55.3245 16.3655 55.4192 16.5423C55.514 16.7192 55.6572 16.865 55.832 16.9624C56.3445 17.1901 56.8829 17.3533 57.4352 17.4485L58.6821 17.7555C59.1775 17.848 59.6467 18.0489 60.0562 18.344C60.3381 18.5619 60.5622 18.8463 60.7087 19.1721C60.8552 19.4978 60.9195 19.8549 60.896 20.2116C60.931 20.6375 60.85 21.0649 60.6617 21.448C60.4734 21.8311 60.1849 22.1555 59.8272 22.3862C59.0585 22.8451 58.1762 23.0758 57.2825 23.0514C56.3511 23.0942 55.4393 22.7733 54.7378 22.156C54.4175 21.858 54.167 21.4924 54.0042 21.0854C53.8414 20.6784 53.7704 20.2402 53.7962 19.8023L54.9668 19.7511Z" fill="white"/>
<path d="M63.4662 19.7507C63.4603 20.2027 63.584 20.6468 63.8224 21.0299C64.0594 21.3525 64.3778 21.6056 64.7446 21.763C65.1115 21.9204 65.5135 21.9765 65.9091 21.9254C66.3232 21.9322 66.7357 21.8718 67.1306 21.7463C67.4166 21.6711 67.6716 21.5069 67.859 21.2771C68.0464 21.0473 68.1567 20.7638 68.1739 20.4671C68.1982 20.2696 68.171 20.0691 68.0952 19.8853C68.0194 19.7014 67.8975 19.5405 67.7413 19.4181C67.2894 19.1569 66.8002 18.9671 66.2908 18.8553L65.0948 18.5994C64.5154 18.4442 63.9591 18.2119 63.4407 17.9087C63.1676 17.7181 62.9472 17.4607 62.8003 17.1608C62.6534 16.861 62.5848 16.5284 62.601 16.1946C62.5796 15.8119 62.6439 15.4294 62.7892 15.0751C62.9346 14.7209 63.1572 14.404 63.4407 14.1478C64.0886 13.5871 64.9286 13.3025 65.7819 13.3547C66.6272 13.3288 67.4579 13.5802 68.1485 14.0711C68.4805 14.3325 68.7427 14.6727 68.9115 15.0613C69.0803 15.4498 69.1504 15.8744 69.1155 16.2969H67.9704C67.9256 15.8903 67.7955 15.4979 67.5886 15.1456C67.3525 14.8934 67.0629 14.6981 66.7412 14.574C66.4196 14.45 66.0743 14.4005 65.731 14.4293C65.19 14.3805 64.6514 14.5457 64.2296 14.8898C64.0849 15.0284 63.9696 15.1951 63.8909 15.3798C63.8122 15.5645 63.7716 15.7633 63.7716 15.9643C63.7562 16.1646 63.7985 16.3651 63.8932 16.542C63.9879 16.7189 64.1312 16.8647 64.3059 16.9621C64.8291 17.1845 65.3754 17.3476 65.9346 17.4482L67.156 17.7552C67.6606 17.8432 68.139 18.0443 68.5557 18.3436C68.8375 18.5615 69.0616 18.846 69.2081 19.1717C69.3546 19.4975 69.4189 19.8545 69.3954 20.2112C69.4304 20.6371 69.3494 21.0645 69.1611 21.4476C68.9728 21.8307 68.6843 22.1551 68.3266 22.3859C67.5558 22.8397 66.675 23.0699 65.7819 23.0511C64.8517 23.086 63.9427 22.7661 63.2372 22.1556C62.9215 21.8553 62.6758 21.4886 62.5174 21.0817C62.3591 20.6748 62.292 20.2378 62.3211 19.8019L63.4662 19.7507Z" fill="white"/>
<path d="M71.2529 13.5337H72.4998V21.6182H77.0804V22.7183H71.2529V13.5337Z" fill="white"/>
<path d="M54.9668 35.1012C54.9714 35.5517 55.0943 35.993 55.323 36.3804C55.5635 36.699 55.8824 36.9491 56.2483 37.1061C56.6142 37.2631 57.0145 37.3216 57.4097 37.2758C57.79 37.2753 58.1678 37.2149 58.5294 37.0967C58.8409 37.0207 59.117 36.8395 59.3115 36.5834C59.506 36.3272 59.6072 36.0117 59.5982 35.6896C59.617 35.49 59.5848 35.2889 59.5047 35.1053C59.4245 34.9218 59.299 34.7618 59.1401 34.6407C58.6946 34.3849 58.2146 34.1954 57.7151 34.0778L56.5191 33.822C55.9782 33.7074 55.4558 33.518 54.9668 33.2591C54.6854 33.0752 54.4572 32.8198 54.3053 32.5189C54.1534 32.2179 54.0831 31.882 54.1016 31.545C54.0801 31.1624 54.1445 30.7799 54.2898 30.4256C54.4352 30.0713 54.6578 29.7544 54.9413 29.4983C55.5919 28.9422 56.4299 28.6584 57.2825 28.7052C58.1288 28.6715 58.9619 28.9237 59.6491 29.4215C59.9857 29.6802 60.2528 30.0192 60.4261 30.4079C60.5994 30.7966 60.6735 31.2226 60.6415 31.6473H59.471C59.4497 31.2359 59.3177 30.838 59.0892 30.4961C58.8606 30.2413 58.5758 30.0438 58.2576 29.9194C57.9395 29.795 57.5968 29.7472 57.257 29.7797C56.9889 29.7528 56.7181 29.7796 56.4604 29.8586C56.2027 29.9377 55.9631 30.0674 55.7556 30.2402C55.6109 30.3788 55.4957 30.5455 55.4169 30.7302C55.3382 30.9149 55.2976 31.1138 55.2976 31.3148C55.2823 31.5151 55.3245 31.7156 55.4192 31.8924C55.514 32.0693 55.6572 32.2151 55.832 32.3125C56.3445 32.5402 56.8829 32.7034 57.4352 32.7986L58.6821 33.1056C59.1775 33.1981 59.6467 33.399 60.0562 33.6941C60.3381 33.912 60.5622 34.1964 60.7087 34.5222C60.8552 34.8479 60.9195 35.205 60.896 35.5617C60.931 35.9876 60.85 36.415 60.6617 36.7981C60.4734 37.1812 60.1849 37.5055 59.8272 37.7363C59.0585 38.1952 58.1762 38.4259 57.2825 38.4015C56.3511 38.4443 55.4393 38.1234 54.7378 37.5061C54.4175 37.2081 54.167 36.8425 54.0042 36.4355C53.8414 36.0285 53.7704 35.5903 53.7962 35.1524L54.9668 35.1012Z" fill="white"/>
<path d="M62.7793 28.8843H69.3956V30.01H63.9753V32.7986H69.0648V33.8732H63.9753V36.9688H69.4719V38.0689H62.7793V28.8843Z" fill="white"/>
<path d="M77.5893 29.5496C78.1888 30.0908 78.5617 30.8406 78.6327 31.6475H77.4366C77.3365 31.0614 77.017 30.5361 76.5438 30.1793C76.0706 29.8225 75.4796 29.6613 74.8919 29.7287C74.4863 29.7034 74.0806 29.7762 73.7087 29.9408C73.3368 30.1055 73.0096 30.3574 72.7543 30.6753C72.1521 31.5219 71.864 32.5539 71.94 33.5919C71.9205 34.5004 72.178 35.3932 72.678 36.1503C72.9328 36.4849 73.2659 36.7511 73.6477 36.9252C74.0295 37.0993 74.4481 37.1758 74.8665 37.148C75.2702 37.1624 75.6709 37.0737 76.0314 36.8903C76.3918 36.7069 76.7002 36.4347 76.9277 36.0991C77.1976 35.6429 77.3789 35.1394 77.4621 34.6152H78.6836C78.6119 35.5238 78.235 36.3809 77.6148 37.0457C77.2477 37.4468 76.7979 37.7622 76.2967 37.9699C75.7956 38.1777 75.2553 38.2726 74.7138 38.2481C73.7751 38.2519 72.8683 37.9055 72.169 37.2759C71.6649 36.7547 71.2771 36.1314 71.0313 35.4476C70.7856 34.7638 70.6877 34.0353 70.744 33.3104C70.7009 32.11 71.0792 30.9327 71.8128 29.9845C72.1918 29.5172 72.675 29.1463 73.2233 28.9019C73.7715 28.6574 74.3693 28.5462 74.9682 28.5774C75.9332 28.5542 76.8706 28.9019 77.5893 29.5496Z" fill="white"/>
<path d="M81.6613 28.8843V34.5639C81.6401 35.1424 81.7718 35.7162 82.043 36.2269C82.2278 36.5579 82.5039 36.8283 82.838 37.0053C83.1721 37.1823 83.5499 37.2585 83.9261 37.2247C84.3473 37.2699 84.7726 37.1927 85.1515 37.0023C85.5303 36.8118 85.8469 36.5161 86.0636 36.1501C86.2897 35.6534 86.3944 35.1096 86.369 34.5639V28.8843H87.6159V34.0011C87.6523 34.8774 87.4959 35.7509 87.1579 36.5595C86.8069 37.0713 86.3375 37.4898 85.7901 37.7789C85.2426 38.068 84.6335 38.219 84.0151 38.219C83.3968 38.219 82.7876 38.068 82.2402 37.7789C81.6927 37.4898 81.2234 37.0713 80.8724 36.5595C80.5344 35.7509 80.378 34.8774 80.4143 34.0011V28.8843H81.6613Z" fill="white"/>
<path d="M89.6514 28.8844H93.7993C94.3827 28.8658 94.9635 28.9704 95.5042 29.1915C95.9078 29.3829 96.2436 29.6938 96.4664 30.0825C96.6893 30.4712 96.7886 30.919 96.7512 31.3661C96.7681 31.8402 96.6535 32.3096 96.4204 32.722C96.1759 33.0731 95.8535 33.3621 95.4788 33.5663C95.8381 33.6682 96.1478 33.8988 96.3494 34.2146C96.551 34.5305 96.6306 34.9096 96.573 35.2804V36.5085C96.5487 36.7723 96.5487 37.0378 96.573 37.3016C96.5873 37.4192 96.6294 37.5317 96.6958 37.6296C96.7622 37.7276 96.851 37.8081 96.9547 37.8644V38.0691H95.4534C95.4352 37.9676 95.4352 37.8636 95.4534 37.7621C95.4406 37.5235 95.4406 37.2843 95.4534 37.0457V35.5107C95.4739 35.2699 95.4247 35.0284 95.3119 34.815C95.199 34.6017 95.0272 34.4257 94.8172 34.3083C94.4717 34.1623 94.0966 34.1009 93.7229 34.1292H90.8983V38.0691H89.6514V28.8844ZM93.672 33.1058C94.1474 33.127 94.6178 33.002 95.0208 32.7476C95.1972 32.5944 95.3336 32.4 95.4179 32.1814C95.5022 31.9628 95.5318 31.7268 95.5042 31.494C95.5311 31.2256 95.4806 30.955 95.3588 30.7146C95.2369 30.4742 95.0489 30.2741 94.8172 30.1381C94.5015 30.0124 94.1641 29.9515 93.8247 29.959H90.8983V33.1058H93.672Z" fill="white"/>
<path d="M98.8125 28.8843H105.454V30.01H100.034V32.7986H105.123V33.8732H100.034V36.9688H105.531V38.0689H98.8125V28.8843Z" fill="white"/>
<path d="M107.235 28.8844H110.9C111.452 28.8611 112.002 28.9721 112.503 29.2082C113.003 29.4443 113.44 29.7983 113.775 30.2403C114.401 31.1188 114.723 32.1793 114.691 33.2593C114.696 34.1405 114.514 35.0126 114.157 35.8176C113.897 36.4688 113.441 37.0215 112.852 37.3979C112.263 37.7742 111.571 37.9553 110.874 37.9155H107.235V28.8844ZM110.645 37.0201C110.991 37.0293 111.335 36.9773 111.663 36.8666C112.138 36.6993 112.542 36.3745 112.808 35.9456C113.077 35.5095 113.25 35.0212 113.317 34.5129C113.352 34.1983 113.352 33.8808 113.317 33.5663C113.347 32.6671 113.117 31.7785 112.656 31.0079C112.414 30.6816 112.092 30.4233 111.722 30.2575C111.353 30.0918 110.947 30.0242 110.544 30.0613H108.38V37.1224L110.645 37.0201Z" fill="white"/>
</g>
<defs>
<clipPath id="clip0">
<rect width="128" height="46" fill="white"/>
</clipPath>
</defs>
</svg>
